<svg width="269" height="157" viewBox="0 0 269 157" fill="none" xmlns="http://www.w3.org/2000/svg">
<path d="M172.005 133.551L170.368 138.189C170.02 139.176 168.727 139.029 168.698 137.983C168.3 123.969 172.628 91.3045 192.005 52.5507C213.605 9.35068 220.339 0.217346 221.005 1.05068C201.672 46.884 161.805 137.251 157.005 132.051C151.005 125.551 155.505 95.0507 162.505 78.5507C168.105 65.3507 142.505 124.384 129.005 155.051M121.505 130.051C128.839 105.217 146.505 50.7507 158.505 31.5507C173.505 7.55066 121.005 124.551 116.505 124.051C112.905 123.651 119.005 88.0507 117.505 94.0507C116.005 95.5507 105.205 130.851 102.005 132.051C98.8053 133.251 107.505 84.5507 105.005 94.5507C104.761 95.5273 89.9053 138.451 83.5053 136.051C77.1053 133.651 93.5053 94.5507 92.0053 97.0507C86.5334 106.17 70.3053 125.251 51.5053 130.051C32.7053 134.851 0.00534056 141.051 1.00532 141.051L267.505 70.5507" stroke="white" stroke-width="2" stroke-linecap="round"/>
<path d="M265.505 62.5507C265.505 63.6552 264.61 64.5507 263.505 64.5507C262.401 64.5507 261.156 63.5985 261.505 62.5507C262.005 61.0507 262.901 59.5507 264.005 59.5507C265.11 59.5507 265.505 61.4461 265.505 62.5507Z" fill="#D9D9D9"/>
</svg>
